<?xml version="1.0" encoding="UTF-8"?>
<svg id="Layer_2" data-name="Layer 2" xmlns="http://www.w3.org/2000/svg" viewBox="0 0 2775.43 1504.57">
  <defs>
    <style>
      .cls-1 {
        fill: #b4eb16;
      }

      .cls-1, .cls-2 {
        stroke-width: 0px;
      }

      .cls-2 {
        fill: #fff;
      }
    </style>
  </defs>
  <g id="Layer_1-2" data-name="Layer 1">
    <g>
      <g>
        <path class="cls-2" d="M2775.43,752.29c0,101.49-19.92,200.04-59.2,292.89-37.9,89.61-92.12,170.04-161.13,239.06-69.06,69.05-149.51,123.27-239.09,161.15-89.81,37.99-184.92,57.86-282.88,59.12v.06h-1005.71l.06-.16,134.49-369.52h597.27v-.19h263.9c102.15,0,198.18-39.78,270.4-112.01,72.23-72.22,112-168.25,112-270.4s-39.77-198.18-112-270.41c-72.22-72.23-168.25-112-270.4-112h-980.8v-236.92L1128.75,0h894.39c101.46,0,200,19.92,292.87,59.18.62.26,1.25.53,1.87.8,39.55,16.85,77.3,36.88,113.07,59.98,44.3,28.61,85.57,61.9,123.42,99.64l.73.73c28.02,28.03,53.61,57.93,76.64,89.57,14.1,19.37,27.24,39.37,39.41,59.98,16.93,28.69,31.99,58.56,45.08,89.53,19.64,46.42,34.44,94.26,44.33,143.2,9.89,48.92,14.87,98.94,14.87,149.68Z"/>
        <polygon class="cls-2" points="1766.08 512.73 1678.94 752.16 1678.9 752.28 1539.51 1135.25 1533.56 1151.59 1155.8 1151.59 1388.32 512.73 1766.08 512.73"/>
      </g>
      <polygon class="cls-1" points="1054.47 .08 506.68 1503.83 884.38 1503.83 1432.17 .08 1054.47 .08"/>
      <polygon class="cls-1" points="547.8 .33 0 1504.08 377.7 1504.08 925.5 .33 547.8 .33"/>
    </g>
  </g>
</svg>