<?xml version="1.0" encoding="UTF-8"?>
<svg id="Layer_2" data-name="Layer 2" xmlns="http://www.w3.org/2000/svg" viewBox="0 0 2718.57 324.59">
  <defs>
    <style>
      .cls-1 {
        fill: #b4eb16;
      }

      .cls-1, .cls-2 {
        stroke-width: 0px;
      }

      .cls-2 {
        fill: #fff;
      }
    </style>
  </defs>
  <g id="Layer_1-2" data-name="Layer 1">
    <g>
      <path class="cls-2" d="M564.26,320.23l92.17-250.33h89.87l-92.16,250.33h-89.87Z"/>
      <path class="cls-2" d="M782.37,320.23l-29.72-250.33h97.15l7.07,105.15c.27,3.64.47,8.91.59,15.83.13,6.91.24,14.19.35,21.83.11,7.64.16,14.62.16,20.92h2.55c3.98-5.58,8.68-12.01,14.08-19.28,5.4-7.28,10.78-14.43,16.13-21.47,5.36-7.03,9.95-12.97,13.8-17.83l85.35-105.15h98.24l-214.05,250.33h-91.69Z"/>
      <path class="cls-2" d="M1002.29,320.23l92.17-250.33h267.43l-22.88,62.22h-177.19l-12.05,32.38h152.82l-21.52,58.94h-152.82l-12.83,34.57h180.1l-22.88,62.22h-270.34Z"/>
      <path class="cls-2" d="M1291.7,320.23l92.17-250.33h208.85c13.83,0,25.7,2.25,35.64,6.73,9.93,4.49,17.26,10.8,22.01,18.92,4.74,8.13,6.07,17.65,3.97,28.56-2.66,13.83-7.76,25.23-15.31,34.2-7.55,8.98-16.11,15.95-25.67,20.92-9.57,4.97-19.03,8.43-28.37,10.37l-.64,1.46c11.04,3.16,19.9,8.43,26.61,15.83,6.7,7.4,8.61,18.62,5.72,33.66-2.99,15.53-9.15,29.29-18.49,41.3-9.35,12.01-20.98,21.41-34.89,28.2-13.92,6.79-29.25,10.19-45.99,10.19h-225.58ZM1402.96,262.01h92.42c4.6,0,9.1-.97,13.48-2.91,4.38-1.94,8.22-4.91,11.54-8.91s5.56-9.03,6.72-15.1c.89-4.6-.14-8.43-3.07-11.46-2.94-3.03-7.19-4.55-12.77-4.55h-92.42l-15.9,42.93ZM1437.89,167.41h86.6c3.39,0,6.71-.55,9.96-1.64,3.24-1.09,6.4-2.73,9.5-4.91,3.09-2.18,5.67-4.91,7.76-8.19,2.09-3.27,3.55-7.09,4.39-11.46.89-4.6-.13-8.49-3.04-11.64-2.91-3.15-7.16-4.73-12.73-4.73h-86.6l-15.83,42.57Z"/>
      <path class="cls-2" d="M1768.75,324.59c-32.26,0-59.03-4.25-80.33-12.73-21.29-8.49-36.52-20.74-45.69-36.75-9.17-16.01-11.59-35.29-7.25-57.85,3.68-19.16,10.19-36.93,19.53-53.3,9.33-16.37,20.77-30.75,34.31-43.12,13.25-12.13,28.23-22.25,44.96-30.38,16.72-8.12,34.77-14.31,54.14-18.56,19.37-4.24,39.73-6.37,61.08-6.37,32.26,0,59.02,4.31,80.29,12.92,21.27,8.61,36.48,20.92,45.66,36.93,9.17,16.01,11.56,35.42,7.18,58.22-3.73,19.41-10.41,37.42-20.03,54.03-9.63,16.62-21.45,31.11-35.47,43.48-13.15,11.64-28.02,21.47-44.6,29.47-16.58,8-34.47,14.01-53.67,18.01-19.21,4-39.24,6-60.1,6ZM1784.36,262.38c11.4,0,22.24-1.51,32.53-4.55,10.28-3.03,19.8-7.4,28.53-13.1,8.74-5.7,16.27-12.43,22.62-20.19,6.34-7.76,11.13-16.25,14.36-25.47,1.09-3.15,2.03-5.82,2.81-8,.78-2.18,1.37-4,1.78-5.46.4-1.46.76-2.73,1.1-3.82.33-1.09.59-2.12.78-3.09,1.96-10.19,1.13-19.1-2.5-26.74-3.62-7.64-9.88-13.58-18.77-17.83-8.89-4.24-20.12-6.37-33.7-6.37-11.4,0-22.25,1.52-32.53,4.55-10.29,3.04-19.73,7.34-28.32,12.92-8.59,5.58-16.05,12.19-22.37,19.83-6.32,7.64-11.1,16.07-14.32,25.29-1.1,3.16-2.03,5.82-2.81,8-.78,2.18-1.39,4.06-1.81,5.64-.43,1.58-.79,2.85-1.1,3.82-.31.97-.56,1.94-.74,2.91-1.96,10.19-1.14,19.16,2.46,26.92,3.6,7.77,9.77,13.83,18.51,18.19,8.74,4.37,19.9,6.55,33.49,6.55Z"/>
      <path class="cls-2" d="M1949.86,320.23l92.17-250.33h138.26l-2.71,91.69c-.01,5.09-.29,10.98-.85,17.65-.56,6.67-1.11,13.34-1.67,20.01-.56,6.67-1.18,12.43-1.87,17.28h2.55c2.82-4.6,6.3-10.06,10.43-16.37,4.12-6.3,8.54-12.92,13.27-19.83,4.72-6.91,9.08-13.16,13.06-18.74l64.57-91.69h139.72l-92.17,250.33h-89.87l40.28-109.15c2.38-6.06,4.93-12.73,7.67-20.01,2.73-7.28,5.5-14.43,8.31-21.47,2.81-7.03,5.19-13.1,7.14-18.19h-2.91c-3.75,5.58-8.14,12.07-13.2,19.47-5.06,7.4-10.1,14.68-15.11,21.83-5.02,7.16-9.35,13.28-12.99,18.37l-79.57,109.15h-79.68l.98-109.15c.06-11.64.35-22.98.9-34.02.54-11.03,1.16-19.59,1.84-25.65h-2.91c-1.24,3.88-2.96,9.04-5.16,15.46-2.21,6.43-4.65,13.46-7.33,21.1-2.69,7.64-5.5,15.34-8.45,23.1l-40.27,109.15h-84.41Z"/>
      <path class="cls-2" d="M2354.98,320.23l92.17-250.33h208.85c13.83,0,25.7,2.25,35.64,6.73,9.93,4.49,17.26,10.8,22.01,18.92,4.74,8.13,6.07,17.65,3.97,28.56-2.66,13.83-7.76,25.23-15.31,34.2-7.55,8.98-16.11,15.95-25.67,20.92-9.57,4.97-19.03,8.43-28.37,10.37l-.64,1.46c11.04,3.16,19.9,8.43,26.61,15.83,6.7,7.4,8.61,18.62,5.72,33.66-2.99,15.53-9.15,29.29-18.49,41.3-9.35,12.01-20.98,21.41-34.89,28.2-13.92,6.79-29.25,10.19-45.99,10.19h-225.58ZM2466.23,262.01h92.42c4.6,0,9.1-.97,13.48-2.91,4.38-1.94,8.22-4.91,11.54-8.91s5.56-9.03,6.72-15.1c.89-4.6-.14-8.43-3.07-11.46-2.94-3.03-7.19-4.55-12.77-4.55h-92.42l-15.9,42.93ZM2501.16,167.41h86.6c3.39,0,6.71-.55,9.96-1.64,3.24-1.09,6.4-2.73,9.5-4.91,3.09-2.18,5.67-4.91,7.76-8.19,2.09-3.27,3.55-7.09,4.39-11.46.89-4.6-.13-8.49-3.04-11.64-2.91-3.15-7.16-4.73-12.73-4.73h-86.6l-15.83,42.57Z"/>
      <g>
        <g>
          <path class="cls-2" d="M592.14,160.5c0,21.65-4.25,42.68-12.63,62.49-8.09,19.12-19.65,36.28-34.38,51-14.73,14.73-31.9,26.3-51.01,34.38-19.16,8.11-39.45,12.34-60.35,12.61h0s-214.57.01-214.57.01v-.03s28.71-78.84,28.71-78.84h127.43v-.04h56.3c21.79,0,42.28-8.49,57.69-23.9,15.41-15.41,23.9-35.9,23.9-57.69s-8.48-42.28-23.9-57.69c-15.41-15.41-35.9-23.9-57.69-23.9h-209.25V28.37L240.82,0h190.82c21.65,0,42.67,4.25,62.48,12.63.13.06.27.11.4.17,8.44,3.59,16.49,7.87,24.12,12.8,9.45,6.1,18.26,13.21,26.33,21.26l.16.16c5.98,5.98,11.44,12.36,16.35,19.11,3.01,4.13,5.81,8.4,8.41,12.8,3.61,6.12,6.83,12.49,9.62,19.1,4.19,9.9,7.35,20.11,9.46,30.55,2.11,10.44,3.17,21.11,3.17,31.93Z"/>
          <polygon class="cls-2" points="376.79 109.39 358.2 160.47 358.19 160.5 328.45 242.21 327.18 245.69 246.59 245.69 296.2 109.39 376.79 109.39"/>
        </g>
        <polygon class="cls-1" points="224.97 .02 108.1 320.84 188.68 320.84 305.55 .02 224.97 .02"/>
        <polygon class="cls-1" points="116.87 .07 0 320.9 80.58 320.9 197.45 .07 116.87 .07"/>
      </g>
    </g>
  </g>
</svg>